<svg xmlns="http://www.w3.org/2000/svg" width="44" height="52.8" viewBox="0 0 44 52.8">
  <path id="Bell" d="M22,52.8a8.788,8.788,0,0,1-8.487-6.6H30.487A8.79,8.79,0,0,1,22,52.8Zm22-11H0l2.347-3.914A29.825,29.825,0,0,0,6.6,22.537V22a15.287,15.287,0,0,1,2.5-8.394,15.492,15.492,0,0,1,6.464-5.582A6.467,6.467,0,0,1,15.4,6.6,6.6,6.6,0,0,1,28.363,4.847,10.12,10.12,0,0,0,35.64,22a10.221,10.221,0,0,0,1.745-.15c.01.236.014.467.014.687a29.834,29.834,0,0,0,4.252,15.349L44,41.8ZM22,4.4a2.2,2.2,0,1,0,2.1,2.2A2.2,2.2,0,0,0,22,4.4Z" fill="#fff" opacity="0.1"/>
</svg>
