<svg xmlns="http://www.w3.org/2000/svg" width="45" height="45" viewBox="0 0 45 45">
  <g id="camera-movie" opacity="0.1">
    <path id="Path_4" data-name="Path 4" d="M30.013,22.513H7.487A3.737,3.737,0,0,0,3.75,26.25V41.263A3.736,3.736,0,0,0,7.487,45H30.015a3.736,3.736,0,0,0,3.735-3.737V26.25A3.737,3.737,0,0,0,30.013,22.513ZM28.125,0A9.375,9.375,0,0,0,18.75,9.375,9.375,9.375,0,1,0,9.375,18.75h18.75a9.375,9.375,0,0,0,0-18.75ZM9.375,13.125a3.75,3.75,0,1,1,3.75-3.75A3.754,3.754,0,0,1,9.375,13.125Zm18.75,0a3.75,3.75,0,1,1,3.75-3.75A3.754,3.754,0,0,1,28.125,13.125Zm9.375,15v11.25l7.5,3.75V24.375Z" fill="#fff"/>
  </g>
</svg>
