<svg xmlns="http://www.w3.org/2000/svg" width="45" height="45.05" viewBox="0 0 45 45.05">
  <g id="home-water" transform="translate(0)">
    <path id="Path_6" data-name="Path 6" d="M44.491,40.545a18.037,18.037,0,0,0-20.074-3.157L19.03,39.933A14.227,14.227,0,0,1,3.2,37.495,1.878,1.878,0,1,0,.56,40.17a17.572,17.572,0,0,0,12.319,4.88,18.166,18.166,0,0,0,7.754-1.723l5.387-2.545A14.225,14.225,0,0,1,41.856,43.22a1.879,1.879,0,0,0,2.635-2.675Zm-31.762-3h.334a10.8,10.8,0,0,0,3.831-.787v-8.6a5.631,5.631,0,1,1,11.263,0v4.152a21.4,21.4,0,0,1,13.14,1.6V16.975a3.413,3.413,0,0,0-1.252-2.641L22.525,0,5.006,14.333a3.413,3.413,0,0,0-1.252,2.641V33.54A5.635,5.635,0,0,1,5.83,34.82,10,10,0,0,0,12.729,37.542Z" fill="#fff"/>
  </g>
</svg>
