<svg xmlns="http://www.w3.org/2000/svg" width="45" height="49.09" viewBox="0 0 45 49.09">
  <g id="settings" transform="translate(-1)" opacity="0.1">
    <path id="Path_2" data-name="Path 2" d="M44.539,29.573,41.357,26.9a18.943,18.943,0,0,0,.164-2.35,18.944,18.944,0,0,0-.164-2.35l3.183-2.675a4.15,4.15,0,0,0,.922-5.2l-2.309-4.085A3.964,3.964,0,0,0,38.28,8.448L34.408,9.931a17.965,17.965,0,0,0-3.974-2.369l-.675-4.14A4.034,4.034,0,0,0,25.807,0H21.191a4.032,4.032,0,0,0-3.95,3.418l-.675,4.14a17.872,17.872,0,0,0-3.974,2.369L8.718,8.446a3.964,3.964,0,0,0-4.872,1.786L1.536,14.316a4.15,4.15,0,0,0,.925,5.2l3.183,2.675a18.617,18.617,0,0,0-.164,2.352,18.944,18.944,0,0,0,.164,2.35L2.461,29.571a4.15,4.15,0,0,0-.922,5.2l2.309,4.085A3.964,3.964,0,0,0,8.72,40.645l3.872-1.483a17.965,17.965,0,0,0,3.974,2.369l.675,4.14a4.034,4.034,0,0,0,3.952,3.42h4.617a4.03,4.03,0,0,0,3.95-3.418l.675-4.14a17.873,17.873,0,0,0,3.974-2.369l3.872,1.483a3.968,3.968,0,0,0,4.874-1.786l2.307-4.085a4.15,4.15,0,0,0-.922-5.2ZM23.5,32.727a8.182,8.182,0,1,1,8.182-8.182A8.182,8.182,0,0,1,23.5,32.727Z" transform="translate(0)" fill="#fff"/>
  </g>
</svg>
